<?xml version="1.0" encoding="utf-8"?>
<!-- Generator: Adobe Illustrator 23.0.1, SVG Export Plug-In . SVG Version: 6.00 Build 0)  -->
<svg version="1.1" id="Layer_1" xmlns="http://www.w3.org/2000/svg" xmlns:xlink="http://www.w3.org/1999/xlink" x="0px" y="0px"
	 viewBox="0 0 256 256" style="enable-background:new 0 0 256 256;" xml:space="preserve">
<style type="text/css">
	.st0{fill:none;stroke:#6377D6;stroke-width:3;stroke-miterlimit:10;}
	.st1{fill:#6377D6;}
	.st2{fill:#0D0E1F;}
</style>
<g>
	<circle class="st0" cx="127" cy="173.9" r="25.9"/>
	<polygon class="st1" points="124.8,164.4 126.5,154.5 128.5,164.3 133.9,155.9 132,165.7 140.2,160 134.7,168.4 144.5,166.2 
		136.2,171.8 146,173.6 136.2,175.6 144.6,181 134.8,179.1 140.5,187.3 132.2,181.8 134.3,191.5 128.7,183.2 127,193.1 125,183.3 
		119.6,191.7 121.5,181.9 113.3,187.6 118.8,179.2 109,181.4 117.3,175.8 107.5,174 117.3,172 108.9,166.6 118.7,168.5 113,160.3 
		121.3,165.9 119.2,156.1 	"/>
	<circle class="st1" cx="127" cy="173.9" r="14"/>
	<circle class="st2" cx="127" cy="173.9" r="8"/>
</g>
</svg>
