<svg width="135" height="126" viewBox="0 0 135 126" fill="none" xmlns="http://www.w3.org/2000/svg">
<path d="M133.344 73.2782L70.5521 1.50725C69.7183 0.545177 68.4997 0 67.2329 0C65.9662 0 64.7476 0.545177 63.9138 1.50725L1.12223 73.2782C0.304467 74.2082 -0.080365 75.4429 0.0639465 76.6775C0.208258 77.9122 0.849642 79.0346 1.85982 79.7562L64.6514 125.166C65.405 125.711 66.3029 126 67.2329 126C68.163 126 69.0609 125.711 69.8145 125.166L132.606 79.7562C133.616 79.0346 134.258 77.9122 134.402 76.6775C134.546 75.4429 134.145 74.2082 133.344 73.2782ZM132.815 76.4851C132.798 76.5813 132.782 76.6775 132.766 76.7577C132.75 76.7898 132.75 76.8379 132.734 76.8699C132.734 76.902 132.718 76.918 132.718 76.9501C132.702 76.9822 132.702 77.0143 132.686 77.0463C132.51 77.5915 132.157 78.0886 131.676 78.4253L68.8685 123.851C68.8364 123.883 68.7883 123.899 68.7562 123.932C68.6921 123.964 68.644 124.012 68.5799 124.044C68.5157 124.076 68.4516 124.108 68.3874 124.14C68.3073 124.172 68.2271 124.204 68.1309 124.236C68.0507 124.268 67.9545 124.284 67.8743 124.316C67.7621 124.348 67.6659 124.364 67.5536 124.364C67.4414 124.381 67.3292 124.381 67.2329 124.381C67.0726 124.381 66.8962 124.364 66.7359 124.332C66.6717 124.316 66.6236 124.316 66.5755 124.3C66.4954 124.284 66.4312 124.268 66.3671 124.236C66.1907 124.172 66.0303 124.108 65.87 124.012C65.8379 123.996 65.8219 123.98 65.7898 123.964C65.7738 123.964 65.7738 123.948 65.7578 123.948C65.7097 123.916 65.6616 123.883 65.6135 123.851L2.80587 78.4413C2.43707 78.1848 2.14845 77.832 1.95603 77.4312C1.81172 77.1425 1.69948 76.8058 1.66741 76.4691C1.63534 76.2446 1.65137 76.0361 1.66741 75.8277C1.68344 75.7315 1.69948 75.6353 1.71551 75.5391C1.74758 75.4429 1.76362 75.3306 1.79569 75.2344C1.82775 75.1382 1.87586 75.042 1.92396 74.9458C1.95603 74.8977 1.9881 74.8335 2.00414 74.7854C2.06827 74.6732 2.13241 74.577 2.21259 74.4648C2.24466 74.4166 2.29276 74.3685 2.32483 74.3204L13.3406 61.7333L65.1164 2.56554C65.5173 2.11657 66.0464 1.79588 66.6236 1.6676C66.7198 1.65157 66.816 1.63553 66.9123 1.6195C67.0085 1.60346 67.1207 1.60346 67.2169 1.60346C67.5376 1.60346 67.8583 1.6676 68.1469 1.76381C68.5959 1.92415 68.9968 2.19674 69.3174 2.56554L132.109 74.3204C132.221 74.4487 132.317 74.593 132.414 74.7373C132.462 74.8175 132.494 74.8817 132.526 74.9618C132.606 75.1222 132.67 75.2825 132.702 75.4589C132.815 75.7956 132.847 76.1484 132.815 76.4851Z" fill="black"/>
<path d="M58.9751 18.1038L44.1592 53.0111L33.9772 46.6774L58.9751 18.1038Z" fill="black"/>
<path d="M86.4586 55.4003L67.2331 67.3621L48.0076 55.4003L67.2331 10.1506L86.4586 55.4003Z" fill="black"/>
<path d="M100.633 88.7685C98.9494 87.0368 95.9349 84.1987 91.9583 81.3445C89.056 79.26 86.1057 77.5122 83.1713 76.1172C82.5139 75.7965 81.8565 75.5079 81.1991 75.2353C81.1029 75.1872 80.9906 75.1391 80.8944 75.107C78.0884 73.9686 75.3144 73.1668 72.5725 72.7018C72.4282 72.6858 72.2838 72.6537 72.1395 72.6217C70.7124 72.3972 69.3014 72.2689 67.8904 72.2368C67.7941 72.2368 67.6819 72.2368 67.5857 72.2368C67.6178 72.2368 67.6338 72.2208 67.6659 72.2208C67.6979 72.2208 67.73 72.2048 67.7781 72.2048C67.7941 72.2048 67.8102 72.2048 67.8262 72.1887C67.8583 72.1887 67.8904 72.1727 67.9064 72.1567C67.9224 72.1567 67.9385 72.1406 67.9705 72.1406C68.0026 72.1246 68.0347 72.1246 68.0667 72.1086C68.0988 72.0925 68.1148 72.0925 68.1469 72.0765C68.195 72.0444 68.2591 72.0284 68.3073 71.9963C68.3554 71.9803 68.3874 71.9482 68.4195 71.9322L68.4516 71.9161L88.2383 59.6016L100.633 88.7685Z" fill="black"/>
<path d="M42.3793 57.1801L28.4132 90.051L8.57837 75.7001L30.9948 50.0928L42.3793 57.1801Z" fill="black"/>
<path d="M66.8961 72.2207C65.5813 72.2368 64.2665 72.3169 62.9356 72.4933C62.7913 72.5093 62.647 72.5414 62.5026 72.5575C59.6324 72.9744 56.7302 73.76 53.8119 74.9145C53.6515 74.9787 53.5072 75.0428 53.3469 75.107C52.8338 75.3154 52.3207 75.5399 51.8076 75.7804C47.1736 77.8809 42.6037 80.8634 38.1781 84.6636C36.3342 86.251 34.891 87.6621 33.8809 88.6883L46.2435 59.5854L66.0303 71.9C66.0623 71.9321 66.1104 71.9481 66.1425 71.9642C66.1746 71.9802 66.2066 71.9962 66.2387 72.0123C66.2708 72.0283 66.3028 72.0443 66.3349 72.0604C66.367 72.0764 66.3991 72.0924 66.4311 72.0924C66.4632 72.1085 66.5113 72.1245 66.5434 72.1406C66.5594 72.1406 66.5754 72.1566 66.5915 72.1566C66.6716 72.1726 66.7518 72.2047 66.832 72.2207C66.848 72.2207 66.8641 72.2207 66.8961 72.2207Z" fill="black"/>
<path d="M125.888 75.7001L106.053 90.051L92.0867 57.1801L103.471 50.0928L125.888 75.7001Z" fill="black"/>
<path d="M67.5536 124.365C67.4414 124.381 67.3291 124.381 67.2329 124.381C67.0726 124.381 66.8962 124.365 66.7358 124.333C66.8962 124.365 67.0726 124.381 67.2329 124.381C67.3452 124.381 67.4414 124.381 67.5536 124.365Z" fill="black"/>
<path d="M100.489 46.6774L90.3067 53.0111L75.4907 18.1038L100.489 46.6774Z" fill="black"/>
<path d="M87.7254 103.312L67.2331 118.128L46.8051 103.344C53.716 106.887 60.5628 108.683 67.2171 108.683C73.9196 108.683 80.7824 106.887 87.7254 103.312Z" fill="black"/>
<path d="M2.21248 74.4814C2.13231 74.5777 2.06817 74.6899 2.00403 74.8021C2.06817 74.6739 2.13231 74.5777 2.21248 74.4814Z" fill="black"/>
<path d="M68.3874 124.141C68.3072 124.173 68.211 124.205 68.1309 124.237C68.2271 124.205 68.3072 124.173 68.3874 124.141Z" fill="black"/>
<path d="M132.815 76.4859C132.799 76.5821 132.782 76.6783 132.766 76.7585C132.782 76.6783 132.799 76.5821 132.815 76.4859C132.847 76.1332 132.831 75.7964 132.734 75.4597C132.815 75.7964 132.847 76.1492 132.815 76.4859Z" fill="black"/>
<path d="M132.847 75.4597H132.735V76.7585H132.847V75.4597Z" fill="url(#paint0_linear_55:4976)"/>
<path d="M72.6845 83.9101C72.6524 86.8284 70.2472 89.1694 67.3289 89.1374C64.4106 89.1053 62.0696 86.7001 62.1016 83.7818C62.1337 80.8635 64.5389 78.5225 67.4572 78.5545C68.1627 78.5706 68.8362 78.7149 69.4615 78.9714C68.4834 79.3081 67.7779 80.2382 67.7619 81.3285C67.7458 82.7235 68.8683 83.878 70.2633 83.894C71.2414 83.9101 72.0912 83.3649 72.5241 82.5471C72.6204 82.9961 72.6845 83.4451 72.6845 83.9101Z" fill="black"/>
<path d="M97.6504 91.6385C96.047 93.0335 93.1928 95.3264 89.4568 97.6033C84.2295 100.778 76.148 104.562 67.2167 104.562H67.2007C58.1732 104.562 49.9795 100.682 44.6881 97.427C41.6736 95.5669 39.2524 93.7069 37.7612 92.4723C37.3763 92.1516 37.0396 91.879 36.751 91.6224C38.3224 90.0029 41.2086 87.229 45.0248 84.487C46.6764 83.3005 48.344 82.2262 50.0276 81.2961C49.9154 82.1139 49.8513 82.9477 49.8513 83.7975C49.8513 88.4796 51.6792 92.8892 54.9823 96.1923C58.2855 99.5115 62.695 101.323 67.3771 101.323C72.0592 101.323 76.4687 99.4954 79.7718 96.1923C83.075 92.8892 84.9029 88.4796 84.9029 83.7975C84.9029 83.076 84.8548 82.3384 84.7746 81.6329C88.3343 83.6853 91.3488 85.9782 93.4975 87.8062C95.3094 89.3455 96.7204 90.7085 97.5863 91.5904C97.6344 91.6064 97.6504 91.6224 97.6504 91.6385Z" fill="black"/>
<path d="M60.5945 77.7045C60.0654 78.2818 59.6164 78.9392 59.2476 79.6447C59.0071 79.5966 58.7666 79.5485 58.526 79.4683C58.1412 79.3561 57.7564 79.2438 57.4036 79.1637C57.0348 79.0675 56.6981 78.9873 56.4095 78.9231C55.9124 78.8109 55.5436 78.7307 55.4474 78.7147C57.0508 78.0733 58.6543 77.5762 60.2417 77.1914C60.354 77.3678 60.4662 77.5281 60.5945 77.7045Z" fill="black"/>
<path d="M79.467 78.9872C79.3868 79.0032 79.018 79.0673 78.5049 79.1796C78.2163 79.2437 77.8636 79.3079 77.5108 79.388C77.142 79.4682 76.7572 79.5644 76.3723 79.6606C76.1318 79.7248 75.8753 79.7729 75.6347 79.821C75.282 79.1154 74.849 78.458 74.3359 77.8647C74.4642 77.7044 74.5765 77.528 74.7047 77.3677C76.228 77.7685 77.7673 78.2817 79.3227 78.923C79.3708 78.9551 79.4189 78.9711 79.467 78.9872Z" fill="black"/>
<path d="M83.6363 83.7977C83.6363 92.745 76.3566 100.041 67.3932 100.041C58.4459 100.041 51.1501 92.7611 51.1501 83.7977C51.1501 82.6753 51.2624 81.585 51.4869 80.5267C52.6895 79.9013 53.8921 79.3561 55.0786 78.8591C55.1748 78.827 55.271 78.7789 55.3673 78.7468L55.3352 78.7629L55.3673 78.827C55.3673 78.827 55.704 79.0515 56.2171 79.3561C56.4736 79.5165 56.7783 79.6929 57.099 79.8853C57.4197 80.0777 57.7724 80.2541 58.1252 80.4465C58.3337 80.5587 58.5421 80.687 58.7345 80.8153C58.494 81.5208 58.3337 82.2584 58.2535 83.0281C58.013 83.0601 57.7885 83.1243 57.548 83.1403C57.1471 83.1884 56.7623 83.2205 56.3935 83.2846C56.0247 83.3327 55.6719 83.3969 55.3833 83.445C54.79 83.5412 54.4052 83.6214 54.4052 83.6214L54.3571 83.6695L54.4052 83.7496C54.4052 83.7496 54.806 83.8298 55.3833 83.926C55.6879 83.9741 56.0247 84.0383 56.3935 84.0864C56.7623 84.1505 57.1631 84.1826 57.548 84.2307C57.7724 84.2467 58.013 84.2948 58.2374 84.3429C58.2695 85.0805 58.3978 85.8021 58.6062 86.5076C58.4138 86.6359 58.2214 86.7641 58.013 86.8764C57.6602 87.0688 57.3074 87.2452 56.9867 87.4376C56.6661 87.63 56.3614 87.8064 56.1048 87.9667C55.5917 88.2714 55.255 88.4959 55.255 88.4959L55.2229 88.56L55.3031 88.6242C55.3031 88.6242 55.704 88.544 56.2812 88.4157C56.5698 88.3516 56.9226 88.2714 57.2754 88.1752C57.6442 88.079 58.013 87.9828 58.3978 87.8705C58.6062 87.8064 58.8307 87.7583 59.0552 87.7262C59.3919 88.4638 59.8249 89.1373 60.338 89.7626C60.2097 89.939 60.0814 90.1474 59.9371 90.3078C59.6966 90.6285 59.44 90.9331 59.2156 91.2218C58.9911 91.5104 58.7826 91.799 58.6062 92.0395C58.2535 92.5206 58.029 92.8573 58.029 92.8573V92.9375L58.1252 92.9535C58.1252 92.9535 58.4619 92.729 58.943 92.3762C59.1835 92.1999 59.4721 91.9914 59.7607 91.7669C60.0654 91.5424 60.37 91.3019 60.6907 91.0454C60.8511 90.9011 61.0435 90.7888 61.2199 90.6606C61.7811 91.1737 62.4225 91.6226 63.112 91.9914C63.0639 92.1999 63.0158 92.4083 62.9356 92.6168C62.8073 93.0016 62.679 93.3704 62.5828 93.7392C62.4706 94.092 62.3744 94.4287 62.2942 94.7173C62.1339 95.2946 62.0377 95.6794 62.0377 95.6794L62.0858 95.7596L62.1499 95.7275C62.1499 95.7275 62.3904 95.4068 62.7111 94.9097C62.8715 94.6532 63.0799 94.3645 63.2723 94.0599C63.4808 93.7392 63.6732 93.4025 63.8816 93.0657C63.9939 92.8733 64.1222 92.6969 64.2504 92.5045C65.0041 92.7771 65.7897 92.9535 66.6235 93.0176C66.6556 93.2261 66.7037 93.4506 66.7198 93.6751C66.7679 94.0759 66.7999 94.4608 66.8641 94.8296C66.9122 95.1983 66.9763 95.5511 67.0244 95.8397C67.1206 96.433 67.2008 96.8339 67.2008 96.8339L67.2489 96.882L67.3291 96.8339C67.3291 96.8339 67.4092 96.433 67.5055 95.8397C67.5536 95.5511 67.6177 95.1983 67.6658 94.8296C67.7139 94.4608 67.762 94.0599 67.8101 93.6751C67.8261 93.4666 67.8742 93.2421 67.9063 93.0337C68.7241 92.9856 69.5258 92.8252 70.2634 92.5847C70.3917 92.7611 70.52 92.9535 70.6162 93.1459C70.8086 93.4987 71.001 93.8354 71.2095 94.1561C71.4019 94.4768 71.5943 94.7654 71.7546 95.022C72.0753 95.5351 72.2998 95.8558 72.2998 95.8558L72.3639 95.8878L72.4121 95.8077C72.4121 95.8077 72.3319 95.4068 72.1715 94.8296C72.0914 94.5409 72.0112 94.2042 71.915 93.8354C71.8188 93.4666 71.7065 93.0978 71.5943 92.713C71.5301 92.5045 71.482 92.2961 71.4339 92.0876C72.1234 91.7349 72.7648 91.3019 73.3421 90.8049C73.5184 90.9331 73.7108 91.0614 73.8712 91.2057C74.1759 91.4623 74.4805 91.7188 74.7691 91.9433C75.0578 92.1838 75.3464 92.3923 75.5709 92.5687C76.0519 92.9375 76.3726 93.1619 76.3726 93.1619L76.4688 93.1459V93.0657C76.4688 93.0657 76.2604 92.729 75.9076 92.2319C75.7312 91.9754 75.5388 91.6868 75.3303 91.3981C75.1219 91.0935 74.8653 90.7728 74.6248 90.4681C74.4805 90.2918 74.3522 90.0833 74.224 89.8909C74.7531 89.2816 75.2021 88.6242 75.5548 87.9026C75.7793 87.9507 76.0038 87.9988 76.2122 88.079C76.5971 88.1912 76.9659 88.3195 77.3347 88.4157C77.6874 88.5119 78.0402 88.6081 78.3288 88.6723C78.9061 88.8166 79.3069 88.9128 79.3069 88.9128L79.3871 88.8647L79.355 88.8005C79.355 88.8005 79.0183 88.5761 78.5212 88.2554C78.2647 88.095 77.9761 87.9026 77.6554 87.7102C77.3347 87.5178 76.9979 87.3253 76.6452 87.1169C76.4367 87.0047 76.2443 86.8603 76.0359 86.7321C76.2604 86.0426 76.4047 85.3371 76.4528 84.5995C76.6772 84.5674 76.9178 84.5193 77.1583 84.5033C77.5592 84.4712 77.944 84.4391 78.3288 84.391C78.6976 84.3429 79.0504 84.2948 79.339 84.2627C79.9323 84.1826 80.3331 84.1184 80.3331 84.1184L80.3812 84.0703L80.3331 83.9901C80.3331 83.9901 79.9323 83.8939 79.355 83.7977C79.0664 83.7496 78.7137 83.6695 78.3449 83.6214C77.9761 83.5572 77.5752 83.5091 77.1904 83.461C76.9498 83.4289 76.7093 83.3808 76.4688 83.3327C76.4207 82.5631 76.2764 81.8255 76.0519 81.12C76.2603 80.9917 76.4688 80.8634 76.6773 80.7512C77.03 80.5587 77.3828 80.3824 77.7035 80.206C78.0402 80.0296 78.3288 79.8532 78.6014 79.7089C79.1305 79.4203 79.4673 79.1958 79.4673 79.1958L79.4993 79.1317L79.4512 79.0996C80.7821 79.6448 82.0649 80.2701 83.2995 80.9275C83.5401 81.7934 83.6363 82.7875 83.6363 83.7977Z" fill="black"/>
<defs>
<linearGradient id="paint0_linear_55:4976" x1="132.827" y1="76.1149" x2="132.636" y2="76.1149" gradientUnits="userSpaceOnUse">
<stop stop-color="#9945FF"/>
<stop offset="0.14" stop-color="#8A53F4"/>
<stop offset="0.42" stop-color="#6377D6"/>
<stop offset="0.79" stop-color="#24B0A7"/>
<stop offset="0.99" stop-color="#00D18C"/>
<stop offset="1" stop-color="#00D18C"/>
</linearGradient>
</defs>
</svg>
