<svg width="48" height="48" viewBox="0 0 48 48" fill="none" xmlns="http://www.w3.org/2000/svg">
<path d="M0 24C0 37.2548 10.7452 48 24 48C37.2548 48 48 37.2548 48 24C48 10.7452 37.2548 0 24 0C10.7452 0 0 10.7452 0 24Z" fill="white"/>
<path d="M15.0164 18.7364C15.0164 18.4364 14.8692 18.1364 14.7219 17.9864L12.5128 15.2864V14.8364H19.2874L24.5892 26.6864L29.3019 14.8364H35.7819V15.2864L33.8674 17.0864C33.7201 17.2364 33.5728 17.3864 33.7201 17.6864V31.1864C33.7201 31.3364 33.7201 31.6364 33.8674 31.7864L35.6346 33.5864V34.0364H26.3564V33.5864L28.271 31.6364C28.4183 31.4864 28.4183 31.3364 28.4183 31.0364V20.0864L23.1164 33.7364H22.5274L16.3419 20.0864V29.2364C16.3419 29.6864 16.4892 29.9864 16.6364 30.2864L19.1401 33.2864V33.7364H12.2183V33.2864L14.7219 30.2864C15.0164 29.9864 15.1637 29.6864 15.0164 29.2364V18.7364Z" fill="black"/>
</svg>
