<svg width="92" height="92" viewBox="0 0 92 92" fill="none" xmlns="http://www.w3.org/2000/svg">
<path d="M80.9602 14.72L55.2002 14.72" stroke="white" stroke-miterlimit="10" stroke-linecap="round" stroke-linejoin="round"/>
<path d="M75.4399 9.2L80.9599 14.72L75.4399 20.24" stroke="white" stroke-miterlimit="10" stroke-linecap="round" stroke-linejoin="round"/>
<path d="M29.4493 28.2049C25.0928 26.1396 22.0801 21.7016 22.0801 16.56C22.0801 9.44657 27.8466 3.67999 34.9601 3.67999C42.0735 3.67999 47.8401 9.44657 47.8401 16.56C47.8401 21.7016 44.8273 26.1396 40.4709 28.2049" stroke="white" stroke-miterlimit="10" stroke-linecap="round" stroke-linejoin="round"/>
<path d="M29.4399 46C29.4399 42.9511 26.9688 40.48 23.9199 40.48C20.871 40.48 18.3999 42.9511 18.3999 46V58.88C18.3999 74.1226 30.7573 86.48 45.9999 86.48C61.2425 86.48 73.5999 74.1226 73.5999 58.88V46C73.5999 42.9511 71.1288 40.48 68.0799 40.48C65.031 40.48 62.5599 42.9511 62.5599 46V42.32C62.5599 39.2711 60.0888 36.8 57.0399 36.8C53.991 36.8 51.5199 39.2711 51.5199 42.32V38.64C51.5199 35.5911 49.0488 33.12 45.9999 33.12C42.951 33.12 40.4799 35.5911 40.4799 38.64V16.56C40.4799 13.5111 38.0088 11.04 34.9599 11.04C31.911 11.04 29.4399 13.5111 29.4399 16.56V57.04V46Z" stroke="white" stroke-miterlimit="10" stroke-linecap="round" stroke-linejoin="round"/>
</svg>
