<?xml version="1.0" encoding="utf-8"?>
<!-- Generator: Adobe Illustrator 23.0.1, SVG Export Plug-In . SVG Version: 6.00 Build 0)  -->
<svg version="1.1" id="Layer_1" xmlns="http://www.w3.org/2000/svg" xmlns:xlink="http://www.w3.org/1999/xlink" x="0px" y="0px"
	 viewBox="0 0 256 256" style="enable-background:new 0 0 256 256;" xml:space="preserve">
<style type="text/css">
	.st0{fill:url(#SVGID_1_);}
</style>
<g>
	
		<linearGradient id="SVGID_1_" gradientUnits="userSpaceOnUse" x1="246.5" y1="132.55" x2="8.0745" y2="132.55" gradientTransform="matrix(1 0 0 -1 0 256)">
		<stop  offset="0" style="stop-color:#9945FF"/>
		<stop  offset="0.14" style="stop-color:#8A53F4"/>
		<stop  offset="0.42" style="stop-color:#6377D6"/>
		<stop  offset="0.79" style="stop-color:#24B0A7"/>
		<stop  offset="0.99" style="stop-color:#00D18C"/>
		<stop  offset="1" style="stop-color:#00D18C"/>
	</linearGradient>
	<path class="st0" d="M246.3,146.7c0-0.1,0-0.2-0.1-0.4c0-0.1,0-0.2-0.1-0.2c0-0.1,0-0.1-0.1-0.2c0-0.1,0-0.1-0.1-0.2
		c0-0.1-0.1-0.2-0.1-0.4c0,0,0-0.1-0.1-0.1c0-0.1-0.1-0.2-0.1-0.3c-0.2-0.3-0.4-0.6-0.6-0.8L131,13.7c-0.6-0.7-1.3-1.1-2.1-1.4
		c-0.6-0.2-1.1-0.3-1.7-0.3c-1.4,0-2.7,0.6-3.6,1.5c-0.1,0.1-0.1,0.1-0.2,0.2L28.7,122L9.3,144.1c-0.3,0.3-0.5,0.7-0.7,1.1
		C8.2,146.1,8,147,8.1,148c0.1,0.6,0.2,1.2,0.5,1.7c0.4,0.7,0.9,1.4,1.6,1.8L124.3,234c0.1,0.1,0.2,0.1,0.3,0.2l0,0
		c0.1,0,0.1,0.1,0.2,0.1s0.1,0.1,0.2,0.1l0,0c0.7,0.4,1.5,0.5,2.3,0.5c0.4,0,0.8,0,1.2-0.1c0.6-0.2,1.3-0.4,1.8-0.8l114.1-82.5
		c0.8-0.6,1.4-1.4,1.8-2.3c0.1-0.2,0.1-0.3,0.2-0.5c0-0.1,0-0.1,0-0.2c0-0.2,0.1-0.4,0.1-0.6c0-0.1,0-0.2,0-0.3
		C246.4,147.4,246.4,147.1,246.3,146.7z M187.6,93.9l-18.5,11.5L142.2,42L187.6,93.9z M127.2,27.5l34.9,82.2l-34.9,21.7l-34.9-21.7
		L127.2,27.5z M112.2,42l-26.9,63.4L66.8,93.9L112.2,42z M20.6,146.6l40.7-46.5L82,113l-25.4,59.7L20.6,146.6z M89,117.3l34.9,21.7
		c-2,0.1-3.9,0.3-5.9,0.6c0,0,0,0-0.1,0c-4.5,0.6-9,1.8-13.6,3.4c-1.2,0.4-2.4,0.9-3.6,1.4c-0.1,0-0.3,0.1-0.4,0.2
		c-9.6,4-19,10-28.1,17.8c-1.4,1.2-2.7,2.4-3.9,3.5L89,117.3z M127.2,223.7l-32.1-23.2c10.7,4.6,21.4,6.9,31.8,6.9
		c10.9,0,22.1-2.6,33.4-7.6L127.2,223.7z M168.6,186.6c-9.8,6-25,13.1-41.8,13.1l0,0c-17,0-32.3-7.3-42.3-13.4
		c-5.7-3.5-10.2-7-13-9.3c-0.7-0.6-1.3-1.1-1.9-1.6c3-3.1,30.5-28.1,57.8-28.3s54.8,26.6,56.4,28.2l0.1,0.1
		C181,178.1,175.7,182.4,168.6,186.6z M173.3,156.1c-6.3-4.5-12.7-8.2-19-10.9c-0.6-0.3-1.2-0.5-1.8-0.8c-0.7-0.3-1.4-0.6-2.1-0.8
		c-4.7-1.8-9.3-3-13.9-3.8c-0.1,0-0.2,0-0.3,0c-2-0.3-3.9-0.5-5.8-0.6l35-21.8l21.1,49.6C183.2,163.9,178.7,160,173.3,156.1z
		 M197.7,172.7L172.4,113l20.7-12.9l40.7,46.5L197.7,172.7z"/>
</g>
</svg>
